<?xml version="1.0" encoding="UTF-8" standalone="no"?>
<!-- Created with Inkscape (http://www.inkscape.org/) -->

<svg
   width="188.45mm"
   height="178.38565mm"
   viewBox="0 0 188.45 178.38565"
   version="1.1"
   id="svg1"
   xmlns="http://www.w3.org/2000/svg"
   xmlns:svg="http://www.w3.org/2000/svg">
  <defs
     id="defs1" />
  <g
     id="layer1"
     transform="translate(-14.259028,-48.412611)">
    <path
       fill-rule="evenodd"
       clip-rule="evenodd"
       d="m 112.84536,48.412608 h -8.28807 l -4.36253,0.412428 -4.144193,0.823328 -4.580411,1.441969 -4.362382,1.853939 -1.744726,1.029542 -1.963079,0.617114 -5.234988,0.618642 -4.798603,0.617112 -4.798603,1.235756 -3.271584,1.235756 -2.399141,1.029541 -4.144188,2.265908 -3.053716,2.059847 -2.39914,1.853939 -2.617494,2.471821 -2.617331,2.883933 -2.617332,3.501813 -1.526858,2.265766 -1.526858,1.441967 -2.399301,1.647871 -3.271584,2.265917 -2.835524,2.471957 -3.271746,3.295758 -1.963079,2.471819 -1.744889,2.47166 -1.963079,3.29591 -1.963079,4.326059 -1.09015,3.50166 -1.090152,5.56151 -0.653443,6.38606 -0.436707,1.44197 -2.617333,6.38561 -1.744887,4.94393 -1.090151,6.79742 v 5.97394 l 0.218354,1.44196 0.871797,4.94365 1.526858,4.94363 1.744888,3.91378 1.744887,3.29591 0.655061,2.05985 0.653444,5.56166 0.871797,4.53167 1.526857,4.32574 1.744888,3.91379 1.744889,2.8841 2.399301,3.5015 2.399302,2.8841 2.617331,2.47182 2.181272,1.85377 2.835362,2.06 2.835524,1.85379 2.617494,2.06 2.181109,2.67803 2.617332,3.29575 2.181271,2.26577 3.271584,2.88408 3.053716,2.26561 3.271746,2.05999 5.016795,2.2656 3.271583,1.23576 5.016796,1.23576 4.798117,0.61864 5.235149,0.20622 1.09015,0.2062 3.053879,1.44199 5.016309,2.05953 4.362548,1.23576 5.016791,0.82485 3.7078,0.20621 6.32546,-0.20621 2.83553,-0.41243 5.45285,-1.02954 5.23466,-1.85394 5.23468,-2.67787 7.41592,-0.82334 5.67106,-1.03106 5.01679,-1.64772 5.01647,-2.26607 4.14419,-2.47182 2.83552,-2.05953 2.61734,-2.26607 1.52686,-1.64772 1.96307,-2.05999 2.61734,-3.29591 1.52686,-2.26607 1.74472,-1.85379 2.18127,-1.44197 3.926,-2.88408 2.18127,-1.85379 1.52686,-1.64772 2.39914,-2.47228 2.61765,-3.50151 2.18079,-3.50198 1.96341,-4.11954 1.52686,-4.32605 1.3085,-7.20939 0.43671,-5.35576 0.87179,-2.2662 1.74522,-3.91334 1.74471,-4.94409 0.65346,-2.88363 0.65505,-6.59165 v -2.26577 l -0.43671,-5.56196 -0.4367,-2.47182 -1.3085,-4.3256 -1.74522,-4.12 -1.74473,-3.29575 -0.8734,-2.26577 -0.65507,-5.14968 -0.65506,-4.53182 -0.87341,-2.8841 -1.74473,-4.531649 -2.61734,-4.73758 -2.18126,-3.089699 -1.74505,-2.059997 -1.96309,-2.265902 -1.74473,-1.441967 -2.83551,-2.471822 -3.27176,-2.265902 -2.61715,-1.648037 -1.96309,-1.647871 -2.83553,-3.707732 -2.39945,-2.883783 -2.39915,-2.265902 -1.74521,-1.441981 -2.18078,-1.853934 -4.1442,-2.677877 -4.58073,-2.265755 -4.36205,-1.648031 -4.7986,-1.235755 -3.92601,-0.618642 -6.1071,-0.206213 -2.18128,-0.618642 -2.61732,-1.235756 -4.1442,-1.647877 -5.67121,-1.647877 z m 54.74529,104.848282 -1.09015,-0.20623 -1.09015,0.41243 -2.83521,0.82486 -6.10727,1.02954 h -9.37918 l -3.05355,-0.61864 h -1.74505 v 0.20621 l 1.96293,2.47182 1.74521,1.85379 2.18126,3.08969 2.39898,4.11999 1.30851,3.08985 1.52686,4.3256 0.65344,1.64819 1.74521,0.41243 h 6.1071 l 3.92601,-0.41243 5.67072,-1.23576 3.48994,-1.23574 1.09014,-0.61865 v -1.44197 l -1.09014,-4.11999 -1.74472,-4.94365 -1.96292,-3.50196 -1.74522,-2.67743 z m -57.79577,19.77528 h 0.4367 l 2.83552,5.76758 2.61734,4.32575 2.18126,2.88394 1.96309,2.26576 3.92632,3.70803 0.21836,1.02954 -1.09016,2.47181 -1.74505,3.0897 -1.96307,2.88408 -2.39899,2.88365 -2.83568,2.67787 -0.87342,1.03107 -1.96292,1.44196 -0.8734,-0.2062 -2.39899,-1.8538 -2.61732,-2.26605 -1.96309,-2.26576 -2.18127,-2.67788 -3.27158,-5.14969 -0.43671,-1.02955 v -1.23574 l 1.963086,-2.26577 2.181264,-2.26605 2.39946,-3.29591 1.74474,-2.67758 1.96292,-3.50196 1.3085,-3.29576 0.65505,-2.26575 z m 60.41827,-48.40708 -2.18127,-0.82333 -2.39897,2.05969 -3.70813,3.29576 -4.36206,2.88408 -2.39963,1.23576 -3.48977,1.64773 -3.926,1.64818 0.43671,0.82332 2.39946,0.82333 4.58025,2.06 3.48994,1.85379 2.83552,1.85379 3.0534,2.26621 3.27222,2.88363 1.09015,0.20622 5.45286,-2.67788 4.14435,-2.8841 2.83553,-2.2656 1.52685,-1.64772 2.39946,-2.67803 0.43671,-1.02954 -0.65506,-1.23576 -2.18111,-2.05999 -2.61733,-2.2656 -2.18128,-1.64774 -3.48944,-2.2662 z m -61.95031,-59.119988 0.87342,0.206221 3.05338,2.471822 1.30851,1.029539 1.52686,1.647871 2.61734,3.089853 2.83551,4.325748 1.52686,2.677877 V 82.4 l -1.09015,1.029554 -2.61733,2.677726 -2.39898,3.089841 -2.18127,3.29575 -2.83552,5.14985 -1.3085,3.501969 -0.87342,0.20622 -1.52686,-3.089849 -1.96292,-3.91379 -2.39947,-3.50166 -1.52684,-2.05985 -1.962923,-2.265752 -2.399148,-2.471972 -1.745044,-1.441967 0.218353,-1.23576 2.399146,-4.531819 2.181097,-3.089837 1.745209,-2.059847 1.96309,-2.059846 1.52686,-1.648037 2.61732,-2.265751 z M 61.806254,98.879541 h -3.925999 l -2.835523,0.20622 -4.362381,0.82333 -4.798442,1.441969 -2.617494,1.02954 v 1.85394 l 0.218354,1.02954 1.308505,4.11999 1.526857,3.91379 1.963079,3.50166 1.744889,2.67788 1.962918,2.26607 h 1.09015 l 3.489775,-1.02955 3.707807,-0.61712 5.452855,-0.61863 h 3.925997 l 5.234988,0.82332 h 1.963079 v -0.61864 l -0.436707,-0.41242 -2.835685,-3.29576 -1.526858,-1.85394 -2.617332,-4.11985 -1.745049,-3.70771 -2.39914,-6.591819 -1.090151,-0.61711 z m 29.00965,69.830879 h 0.436706 v 2.06 l -0.218353,2.05999 -0.218353,7.62151 0.436706,4.11954 0.873415,4.53182 0.871798,2.47182 -0.653445,1.02954 -1.963079,1.44197 -3.271583,1.85394 -4.580412,2.05985 -4.14419,1.44196 -3.925997,0.82486 h -1.962919 l -0.65506,-1.02954 -1.526858,-4.32607 -1.09015,-4.94347 -0.218353,-1.85394 v -7.41576 l 0.655059,-1.02954 3.053392,-1.02953 3.489777,-1.23576 5.234662,-2.26621 3.926484,-2.26561 2.617332,-1.85425 2.398979,-2.05953 z m 55.834946,-93.931459 -1.3085,-0.206221 -1.3085,0.206221 -5.23498,1.441967 -2.61734,1.029539 -3.48993,1.647871 -3.0534,1.648037 -2.18126,1.441966 -1.09015,1.029539 v 1.23576 l 0.65505,1.853942 0.87179,4.325599 0.65507,5.3559 -0.21836,6.179539 -0.21835,1.85379 -0.21836,2.47228 1.09178,-0.20621 2.18111,-1.85379 2.18094,-1.64819 4.58074,-2.883629 4.14419,-1.85379 7.852,-2.47181 0.21835,-1.23576 v -6.179535 l -0.21835,-2.471822 -1.09015,-5.561659 -1.52686,-4.325749 z M 50.245805,125.65878 h 1.090151 l 3.271746,2.88363 3.053392,2.47182 3.272068,2.06 5.453017,2.88408 3.707644,1.23576 1.308505,0.41243 -0.218353,1.02954 -3.489453,1.23576 -3.489937,1.64772 -2.617332,1.44197 -4.14419,2.88363 -2.617332,2.26607 -3.272069,3.08985 -1.308504,-0.20622 -6.107108,-3.08969 -3.053714,-2.06001 -2.835524,-2.2656 -4.14419,-3.91394 -0.436707,-0.82332 0.218353,-0.82485 2.399141,-2.88365 3.708129,-3.29589 2.835362,-2.06002 4.144189,-2.4718 z M 73.585863,76.015325 h -3.053714 l -0.436708,0.617111 -1.526857,4.325748 -0.871798,4.943644 v 10.299533 l 0.655061,0.61711 4.14419,1.02954 4.798603,1.64774 5.889401,2.884079 3.271584,2.05954 2.617332,1.85425 1.090151,0.20622 v -1.44198 l -0.655061,-4.53181 v -7.827269 l 0.218354,-1.64817 1.308503,-6.179392 v -1.648037 l -1.963079,-1.441967 -3.053716,-1.647886 -4.362058,-1.853927 -3.053877,-1.029554 z m 80.700897,21.628316 h 9.8154 l 5.45286,1.02954 2.83552,0.82332 2.39914,1.235759 0.21835,0.41243 -0.8734,4.32606 -1.09015,3.50151 -1.74521,4.12 -2.1808,3.91379 -1.9634,2.88363 -1.09015,0.20622 -3.7078,-1.02955 -5.88925,-0.82332 h -6.32562 l -6.32498,0.82332 h -1.7452 l 0.21836,-0.82332 1.9629,-2.26607 1.96309,-2.67788 1.52686,-2.26575 1.96292,-3.91379 1.96307,-5.1497 1.3085,-3.913929 z m -24.42891,70.655419 -1.09015,-0.20622 v 1.23576 l 1.09015,6.38606 v 5.56166 l -0.43671,3.50151 -1.09015,4.9441 -0.21836,1.85378 0.21836,0.20622 1.74473,1.23576 3.27174,1.85392 3.70814,1.64774 4.14418,1.44197 5.23466,1.02954 h 2.39915 l 0.4367,-0.82334 1.52686,-5.3559 0.65506,-4.3256 v -9.68152 l -0.21835,-0.2062 -1.30851,-0.61712 -7.85248,-2.47182 -3.27158,-1.44196 -4.14419,-2.26576 -2.18127,-1.64818 z m -76.994389,-13.39045 5.452855,1.02953 4.144351,0.82486 2.398979,0.20622 h 3.053877 l 3.925998,-0.41243 2.835523,-0.61712 2.181272,-0.20621 0.218354,0.61711 -1.526859,2.0597 -2.399463,3.09015 -1.963079,3.08969 -2.181272,4.32561 -1.962918,6.38575 -0.655061,1.64803 -0.436707,0.20621 H 55.261468 l -3.489775,-0.41243 -4.14419,-1.02954 -2.835362,-1.02953 -0.436707,-0.41243 v -1.64819 l 1.745049,-6.59167 1.744889,-3.91347 1.744887,-3.29591 1.744888,-2.26606 1.09015,-1.44197 z m 126.069119,-52.73194 -1.09015,-0.20621 -1.09015,5.35576 -1.09015,3.08985 -1.52685,3.5015 -1.52686,2.88409 -2.18111,3.70772 -0.21836,1.02956 1.52686,0.61711 3.27158,1.64772 3.70813,2.26622 2.61732,1.85377 2.39915,1.85379 3.70812,3.50167 0.87342,-0.41243 2.39899,-5.14969 2.18126,-6.17955 0.65506,-3.29591 v -3.50196 l -0.43671,-0.82334 -2.61765,-3.29544 -2.39914,-2.26606 -2.61733,-2.26575 -3.05372,-2.06 z m 8.50964,37.07618 0.87342,0.41243 1.7452,2.88363 1.52686,3.29591 1.52686,4.11999 1.3085,5.76758 v 1.85394 l -0.8734,1.44197 -2.1808,2.67788 -2.39946,2.47182 -2.61733,2.4718 -3.0534,2.26576 -2.83568,1.64803 -0.87179,0.20622 -0.87342,-1.85379 -1.96307,-5.76773 -1.74473,-3.91378 -0.87342,-1.44197 -1.52685,-2.67788 -1.96292,-2.67788 v -0.82485 l 3.48977,-1.64772 4.58042,-2.67803 2.61733,-2.05985 1.74504,-1.44196 1.09015,-1.02956 2.61734,-2.67802 z m -155.080059,2.67955 -0.871798,-0.41243 -0.218354,0.20622 -3.053553,5.97379 -1.744888,5.1497 -0.655061,4.11954 v 3.08984 l 0.218353,1.02954 0.436708,0.61712 1.526858,1.64772 2.399302,2.47181 3.489775,3.09016 3.053716,2.05954 3.489776,1.85439 0.871796,-0.2062 0.871798,-3.91379 1.09015,-3.50196 2.617333,-5.97349 3.053714,-4.94394 -0.218354,-1.02954 -4.362219,-2.05985 -3.489937,-2.06 -3.707968,-2.67757 -1.744888,-1.44197 -1.526857,-1.64819 z m 7.192405,-37.69694 0.655061,0.20621 0.871796,3.08968 1.526859,4.73789 1.963079,4.12 1.96308,3.29575 2.18111,2.67758 -0.218353,0.82332 -2.835524,1.44196 -4.14419,2.47183 -2.835523,2.05999 -2.835524,2.47183 -1.963079,1.85379 -1.962918,2.2662 -0.655061,-0.20621 -2.181111,-3.70773 -1.526857,-3.09015 -1.308504,-3.29544 -1.308505,-5.56198 -0.218354,-2.06 1.090152,-2.05954 1.963079,-2.26606 1.526858,-1.64772 1.963079,-2.06001 2.399303,-1.85377 2.181109,-1.64819 3.271746,-1.85379 z M 155.8154,74.368056 h -4.58073 l -0.87179,0.206207 v 1.029554 l 0.65505,1.853926 1.52686,5.767579 0.43671,3.089838 0.21835,8.239401 0.21836,0.20621 10.68751,0.20622 2.39963,0.2062 3.27158,0.61865 3.70813,1.02954 1.52686,0.20621 v -3.29591 l -0.65506,-5.355906 -0.8718,-3.501963 -1.52686,-3.913638 -0.87342,-1.647871 -1.3085,-1.441966 -3.92599,-1.647887 -5.88892,-1.441966 z M 44.139992,177.97934 l 1.526857,0.20623 5.670886,1.44196 1.96308,0.20621 12.432731,0.41243 0.218353,0.20622 0.218354,8.65119 0.873413,4.53182 1.744727,6.18001 -0.218353,0.82332 -0.218354,0.20622 h -2.835524 l -6.54333,-0.82486 -4.580734,-1.02954 -3.271585,-1.02953 -2.181271,-1.23577 -1.526858,-2.26606 -1.526857,-3.70772 -0.871798,-3.70773 -0.871796,-6.3856 z M 130.94994,57.476546 h -3.05388 l -3.05339,0.617115 -5.01679,1.441969 -3.70765,1.441968 -4.14418,2.06 -0.21836,0.823328 0.43671,0.618642 2.83568,2.471968 3.27159,3.295757 2.39947,2.883782 2.39913,3.707884 1.74505,2.677877 0.87179,0.206206 1.74505,-1.235745 2.61734,-1.647886 2.83568,-1.441967 3.48978,-1.441966 3.48994,-1.029539 4.58025,-1.23576 0.21835,-1.029539 -0.43671,-0.823332 -2.61733,-3.295758 -2.39897,-2.883935 -2.8357,-2.471816 -2.83551,-2.265908 z m -43.623165,0.617115 3.925998,0.412427 4.362543,1.029542 5.452864,1.853937 3.92599,1.647879 0.21836,0.823328 -3.92601,3.707873 -1.963074,2.265917 -1.526859,1.853776 -2.180785,3.089853 -1.526859,2.471821 -1.745211,3.295908 -1.526857,-0.823332 -3.926322,-2.265917 -4.580412,-2.059847 -5.888915,-1.853926 -1.962919,-0.412428 -2.181271,-0.206221 -0.218354,-0.823333 3.489938,-4.943628 1.744726,-2.059998 2.617818,-2.677877 1.744725,-1.647877 2.399463,-1.647879 1.744727,-0.823326 z m 7.632995,138.219469 -1.090151,-1.02954 -1.308504,0.82486 -2.617332,1.64772 -3.708129,1.85394 -3.925998,1.64803 -3.707644,1.02954 -4.14419,1.23575 v 0.82485 l 0.436708,0.61713 2.181271,2.88408 2.398978,2.88363 3.70813,3.50198 2.399139,1.85378 2.617333,1.23576 h 3.708129 l 4.798603,-1.02954 3.925837,-1.23576 3.27174,-1.44197 3.48995,-1.64803 0.21835,-1.02954 -0.43671,-0.20621 -3.05388,-2.67788 -1.52686,-1.64788 -2.18126,-2.26605 -2.617341,-3.50152 z m 31.84549,-1.64894 1.09016,0.2062 2.18127,1.64774 3.7078,1.85424 4.1442,1.64772 4.7986,1.44197 3.70813,0.61865 0.43671,0.2062 -0.21835,1.02954 -1.30851,2.2656 -2.39915,3.29591 -2.61732,2.67788 -1.52686,1.64773 -2.39946,2.06 -2.1808,1.23576 -0.65505,0.20621 h -3.92632 l -5.23467,-1.02954 -3.70813,-1.02954 -4.7986,-2.06 -1.96309,-0.82333 0.21836,-0.82333 1.96292,-1.85394 1.3085,-1.02954 3.926,-4.53182 1.30851,-1.85424 2.39897,-3.91348 z m 49.51257,-18.53894 -0.8734,-0.2062 -2.1808,0.82331 -6.10727,1.44199 -3.92632,0.41242 -8.5064,0.41243 -0.21836,0.41243 v 9.26969 l -0.43671,3.91347 -1.3085,5.1497 -0.21836,1.64819 h 3.05372 l 2.61734,-0.20622 5.01647,-0.82333 4.79844,-1.44197 3.70828,-1.64819 1.52686,-1.64772 1.52686,-4.32575 0.87181,-3.91379 0.65505,-5.76757 z M 60.0646,75.808802 h 5.889401 l 0.653444,0.206221 -0.218353,1.853927 -1.090152,3.707732 -0.653443,5.149534 -0.218353,9.269695 -0.655061,0.20622 -8.506733,0.20621 -5.016472,0.82333 -4.14419,1.02954 -2.18127,0.61711 h -1.090152 l -0.218353,-0.82332 1.090151,-8.85742 0.655061,-2.884094 1.526857,-4.737724 1.526858,-1.647871 4.14419,-2.059847 4.580412,-1.441981 z m 10.686549,24.719228 -2.181109,-0.20621 v 0.61864 l 2.181109,5.1497 1.526858,2.88408 2.181271,3.50151 2.398979,3.08985 2.617331,2.67788 2.617818,2.26607 2.180786,1.64772 4.144189,2.47182 4.14419,1.85378 5.671208,1.85394 1.526859,-0.20622 v -1.23575 l -0.653439,-1.64819 -1.308503,-3.08968 -1.963409,-3.50151 -1.744726,-2.67803 -1.744726,-2.26607 -1.745212,-2.06 -3.271746,-3.0897 -3.053714,-2.26575 -3.489453,-2.05985 -4.144351,-1.85394 z m 48.634781,46.14134 h 1.74473 l 5.23515,1.64819 4.14386,1.85377 3.48978,2.06 2.39962,1.64774 3.27159,2.67787 1.52686,1.64788 1.74473,1.85379 2.18126,2.88408 2.18128,3.50151 1.96292,4.32607 0.87341,2.47182 v 1.23574 l -0.21836,0.20622 -1.74472,-0.20622 -4.36255,-1.44196 -3.27157,-1.23576 -3.92649,-2.06 -1.96291,-1.44197 -3.70782,-2.88393 -2.39945,-2.26577 -1.74473,-2.05999 -2.18128,-3.08969 -2.18126,-3.50198 -2.18079,-4.32575 -0.87342,-2.05999 -0.4367,-0.82334 z M 70.313795,122.56771 h -6.97939 l -5.889239,0.82485 -2.39914,0.61711 -0.218354,0.82334 0.655061,0.61864 1.745212,1.44197 2.835039,2.26605 4.580734,2.67803 3.707805,1.64774 3.926322,1.23574 4.580412,1.02956 3.925997,0.61863 h 5.234664 l 2.835524,-0.20621 2.617331,-0.61712 3.27207,-0.20621 0.65506,-0.20622 0.655061,-0.82332 -0.218353,-1.03107 -1.526859,-1.23576 -3.489937,-2.47166 -4.580249,-2.67803 -5.016795,-2.06 -4.580412,-1.44198 z m 61.287485,16.27408 h 8.28805 l 4.58074,0.61712 5.88892,1.85394 3.48993,1.44196 3.0534,1.64774 2.18128,1.44197 2.83551,2.05999 2.18128,1.85394 0.43671,0.41243 -0.21836,0.82333 -2.61765,0.61864 -5.67073,0.82485 h -6.97987 l -5.23467,-0.82485 -4.58074,-1.02954 -4.14418,-1.64804 -3.70765,-1.64772 -3.05387,-1.85394 -3.0534,-2.26605 -1.7452,-1.23576 -0.43671,-1.02954 1.3085,-0.82333 3.05387,-0.82334 z m -36.422833,-52.321027 -1.09015,-0.412427 -0.655061,1.648037 -0.871797,5.561658 v 6.59167 l 0.653443,4.531819 1.09015,4.32559 1.526859,3.50198 1.744728,3.08984 2.399466,3.70773 2.181265,2.67788 1.96308,2.06 1.09015,1.02954 0.65507,-0.20623 1.09015,-2.88408 0.43671,-3.70773 v -7.20968 l -0.21836,-2.06 -1.09015,-4.53167 -0.87342,-2.88378 -2.18127,-4.943949 -1.96291,-3.29545 -2.39915,-3.09014 -1.526858,-1.647736 z m 10.905703,63.855567 0.87181,0.20621 0.65505,3.29591 0.65345,4.53182 v 5.76756 l -0.65345,4.53182 -0.87179,3.70773 -1.74505,4.73788 -1.74473,3.50151 -1.74521,2.88408 -2.180784,2.67788 -1.963404,2.26577 -0.871798,0.61711 -1.09015,-0.20622 -0.65506,-1.64818 -0.871797,-5.35592 -0.218354,-4.32559 0.436708,-5.1497 0.873414,-4.3256 1.744726,-4.94363 1.745216,-3.29591 1.962903,-3.29591 2.61734,-3.2959 2.61733,-2.67788 z M 87.106966,139.45922 h -6.543815 l -6.325462,1.23575 -4.798117,1.64773 -5.671209,2.88409 -3.271584,2.05999 -3.053878,2.26577 -1.962918,2.05985 -0.218353,0.82331 4.362543,0.82334 4.362544,0.61863 h 4.362057 l 3.271584,-0.41243 5.235149,-1.02954 3.271583,-1.02953 2.617333,-1.02954 6.32546,-3.08971 2.398979,-1.64817 2.835685,-2.06 1.744726,-1.85379 0.218353,-0.82485 -0.436707,-0.20622 -4.798603,-1.02954 z m 35.989694,-53.762845 0.65505,0.206207 1.09015,3.707729 0.65345,4.94363 v 4.94363 l -0.65345,5.149699 -1.30851,4.32606 -1.74488,4.3256 -2.18111,3.91394 -1.96307,2.88363 -1.96292,2.47213 -2.18128,2.05954 h -0.87342 l -0.65505,-2.47182 -0.87179,-4.73742 -0.21836,-2.06 v -3.91379 l 0.87341,-5.3559 0.65345,-3.70772 1.74472,-4.531669 1.74489,-3.29591 1.74505,-2.88363 3.926,-4.531818 z m -22.9019,61.385725 h -1.745217 l -4.362055,1.44197 -3.70813,1.85379 -3.708129,2.05954 -3.271584,2.26621 -2.180948,2.05984 -2.617655,2.67805 -1.526857,1.85377 -2.617657,3.70773 -2.180785,3.91379 -2.181272,6.17954 0.218354,0.82486 1.963079,-0.20622 2.835039,-1.02954 3.926482,-1.64819 3.707644,-2.05955 3.925998,-2.67787 2.617818,-2.47181 2.617331,-2.67788 2.18111,-2.67803 2.180948,-3.50197 1.963397,-3.91378 1.744731,-4.32561 z m 48.20051,-47.996189 0.65505,0.20621 -0.43671,2.060009 -1.3085,3.70772 -1.7452,3.70803 -2.1808,3.50166 -2.61765,3.29591 -3.05355,3.08969 -2.18111,1.85379 -3.70781,2.47182 -4.1442,2.26605 -3.27205,1.44197 -3.92601,1.23576 h -1.3085 l -0.21836,-0.61863 1.74505,-4.73789 1.74473,-3.50197 1.74521,-2.88363 1.96308,-2.8841 1.96292,-2.2656 1.96292,-2.05999 2.83568,-2.47181 1.74473,-1.23576 3.70813,-2.26607 3.70764,-1.85394 3.27224,-1.235749 1.52686,-0.61864 z m -33.58699,51.702539 -1.09015,-0.20621 -1.09016,1.02954 -0.4367,2.06 -0.21835,3.91378 v 7.41545 l 0.21835,2.47183 1.3085,4.73787 1.52686,3.70772 1.74472,3.29591 1.74473,2.88394 1.52686,2.06 2.83551,3.08984 1.74522,1.44198 h 0.87181 l 0.65505,-3.91334 0.65506,-5.3559 v -2.47182 l -0.65506,-5.56196 -1.09015,-4.53167 -1.09015,-2.88363 -1.52686,-3.08986 -1.96292,-3.2959 -2.18126,-2.88394 -1.30852,-1.64772 z m 34.89646,-29.45543 h 5.01679 l 7.852,0.82333 1.3085,0.41243 -0.21835,0.82333 -2.61782,2.67788 -2.83504,2.05999 -3.05388,1.85395 -5.45285,2.67787 -4.36254,1.44197 -4.79861,1.02954 -1.96291,0.20622 h -8.50625 l -3.926,-0.41243 -2.61782,-0.61712 -0.43671,-0.82332 3.70814,-3.50198 2.39913,-1.64787 2.83553,-1.64804 6.10727,-2.88363 4.58025,-1.44197 3.70813,-0.61711 z m 27.26864,-39.550433 -1.09015,-0.412427 v 1.23576 l 1.09015,4.325748 1.09178,5.973783 0.43669,5.56151 0.43671,0.41243 4.36239,2.471819 3.05387,2.06 3.0534,2.2656 1.52686,1.44196 1.74471,1.44199 0.65507,-0.20623 -0.43671,-2.88393 -1.30851,-4.32576 -1.52685,-3.913789 -1.30851,-2.47181 -2.18126,-3.70773 -2.18128,-2.883932 -3.27159,-3.089853 -2.18126,-1.853775 z M 52.42546,201.87357 l 1.96324,0.20622 2.835524,0.82333 6.107269,0.82332 7.415936,0.20622 0.871796,1.02954 1.745213,2.88363 2.398977,3.09015 1.962918,2.05955 3.926483,3.70818 -0.218354,0.82332 -2.617331,-0.2062 -6.107269,-1.44197 -4.362544,-1.44198 -5.01631,-2.47181 -3.053877,-2.06 -2.835524,-2.26576 -3.925997,-3.70802 -1.308504,-1.64774 z m -25.300389,-35.2233 -0.871798,-0.20622 v 2.8841 l 0.218354,1.02954 1.526857,4.53182 1.744889,4.11999 1.962918,3.29576 2.835523,3.91394 1.526858,1.64772 2.617332,2.47182 3.053715,2.47181 1.526859,0.82333 v -1.23576 l -0.436708,-1.44197 -1.090151,-4.94363 -0.871796,-5.35575 v -4.11954 l -1.308504,-0.82333 -4.798442,-2.88409 -3.053716,-2.05954 -1.744888,-1.44197 z m 166.640999,-3.08923 h 0.65506 l -0.21835,1.85377 -1.09178,4.94363 -1.52685,4.32607 -1.96341,4.11954 -1.96307,3.29591 -1.74473,2.26607 -1.74522,2.05953 -2.61732,2.67787 -1.96292,1.64819 -1.3085,0.82486 -0.87342,-0.20621 0.43671,-1.64819 0.65506,-2.05954 1.3085,-8.44561 v -4.73788 l 1.30851,-1.02953 3.27174,-1.8538 2.83553,-2.05999 1.96292,-1.44197 2.18126,-1.85379 1.96309,-2.26605 z m -80.70204,-112.057973 -5.45302,-0.206214 -3.92599,0.206214 -3.27207,0.412428 -5.016311,1.441968 -3.925998,1.647878 v 0.618642 l 3.271583,0.617114 5.453016,1.648029 5.01631,2.265756 2.18127,1.235756 1.30851,0.206213 1.74521,-1.029541 4.79843,-2.47197 3.05341,-1.235756 3.70828,-1.029541 2.61717,-0.618642 v -0.823326 l -3.05371,-1.235756 -5.01648,-1.235755 z m -2.61782,162.112313 h 1.30852 l 2.83551,1.64819 4.36255,1.85379 5.23466,1.64818 3.05339,0.41242 0.43671,0.20622 -0.43671,0.82332 -3.05339,1.44198 -4.79861,1.23575 -5.45285,0.82333 h -6.97988 l -6.76152,-1.02954 -4.798599,-1.44196 -0.655061,-0.41243 0.218354,-0.82333 2.399146,-0.82334 3.48993,-1.02954 4.1442,-1.64772 4.58024,-2.26575 z m -87.900904,-90.6354 -0.436708,-0.2062 -0.436707,0.41242 -1.526857,4.11953 -0.871797,3.0897 -0.653444,4.53182 v 6.79787 l 0.871798,5.1497 1.526857,5.14969 0.871797,2.26576 0.653444,0.20621 0.655061,-2.05985 1.308503,-3.70771 1.526858,-3.50198 3.271584,-5.97347 v -1.23576 l -0.655061,-1.02954 -1.744888,-2.88363 -1.74505,-3.29591 -1.526857,-3.70803 z m 115.160654,-65.503587 3.27207,0.412429 6.76153,1.648029 4.7986,1.853939 4.58024,2.471816 2.83553,2.059843 2.83569,2.265917 3.27158,3.295758 0.65506,0.823317 -0.21835,0.823333 -1.74473,-0.206222 -4.58073,-1.029538 -4.7986,-0.617112 -6.76152,-0.206206 -1.74473,-2.265917 -1.52686,-2.265751 -2.61734,-3.29591 -1.52684,-1.647879 -2.8357,-2.677877 -0.87179,-0.617113 z m -58.447593,0.823328 h -1.308505 l -5.671208,1.235755 -3.489776,1.235756 -4.144351,1.853939 -3.925997,2.265749 -3.271585,2.265917 -2.835523,2.471973 -1.526858,1.647871 -2.18111,2.265902 -0.653443,1.029554 h 1.744887 l 5.889078,-1.23576 4.798603,-0.618649 h 5.452855 l 0.218354,-0.206206 1.308505,-2.059847 2.617331,-3.913788 2.617333,-3.295908 2.399462,-2.471816 1.526858,-1.647877 z M 40.867599,83.636378 h 0.655061 l -0.218354,1.441967 -0.655061,2.884083 -0.871796,5.561513 -0.218354,2.06001 -0.218354,4.943629 -1.744888,1.23576 -3.271746,2.05999 -3.707966,2.67788 -5.234664,4.94363 H 24.94477 l 0.218353,-2.67788 1.526858,-6.17954 1.744888,-3.913789 1.744887,-3.50166 2.181272,-3.29591 2.835362,-3.295753 4.798603,-4.531819 z M 168.68161,200.226 h -0.87342 l -3.27174,1.02954 -7.63413,1.02955 -5.67072,0.20621 -0.43671,0.61711 -1.96308,2.67803 -1.96292,2.88394 -2.61734,3.29591 -1.52685,1.64772 -2.18127,2.06 -0.43671,0.82333 h 1.74472 l 2.39947,-0.41243 5.23466,-1.44196 4.58026,-1.85394 3.48993,-1.85379 3.92632,-2.67788 1.96308,-1.85394 1.74473,-1.44197 1.52686,-1.64772 1.74473,-2.06 z m 28.14044,-79.92328 0.65506,0.61712 1.30851,3.91378 1.09014,4.12 0.43671,3.08968 0.21836,4.53182 -0.21836,4.53182 -0.65506,4.11985 -1.52686,5.76773 -0.65506,1.02954 h -0.4367 l -0.65507,-1.85395 -1.09014,-3.50196 -1.52686,-3.29546 -2.8357,-5.14968 -0.87179,-1.23576 -0.21835,-1.02954 3.27207,-5.97378 1.74473,-4.11955 1.74472,-5.3559 z m -86.15845,12.35862 h -1.96292 l -1.52686,0.61864 -1.74472,1.23576 -0.87342,2.06 v 2.05953 l 0.43671,1.23576 1.30851,1.44197 1.74521,0.82485 h 3.05339 l 1.09014,-0.41242 1.52686,-1.23575 1.09015,-1.85424 v -2.05955 l -0.65505,-1.64819 -1.52686,-1.44196 z m -1.08691,14.42061 h 0.65505 l 0.21836,1.85379 -0.43671,0.61711 -0.65344,-0.20622 -0.21836,-1.02954 z m 0.65505,-21.42379 -0.65505,-0.2062 -0.21836,0.2062 -0.21835,2.05985 0.21835,0.20622 0.87341,-0.20622 z m 8.72153,5.76803 h 1.09015 v 0.82486 l -0.21835,0.20622 h -1.52686 v -0.82333 z m 2.83552,5.14924 -1.09015,-0.20621 -0.21836,0.82485 0.43671,1.02954 0.65507,-0.2062 z m -2.61943,5.56197 1.09016,0.20621 v 0.82333 l -1.09016,0.20622 -0.4367,-0.20622 v -0.82333 z m -18.32116,0.20621 -1.090153,-0.20621 -0.218355,0.20621 -0.218355,0.82333 0.43671,0.20622 0.873423,-0.20622 z m -2.398326,-5.97424 0.436696,0.82485 v 1.02954 l -0.871794,0.20622 0.218355,-1.85394 z m 1.958706,-4.73787 h -1.308506 l -0.218355,0.61863 1.526861,0.20622 0.21835,-0.41243 z"
       fill="#0033A0"
       id="path2"
       style="stroke-width:4.1588" />
  </g>
</svg>
